<svg xmlns="http://www.w3.org/2000/svg" viewBox="0 0 2000 685.41"><defs><style>.cls-1,.cls-5{fill:#245573;}.cls-2{fill:#fff;}.cls-3{fill:#6fc1c3;}.cls-4{fill:#dd6f24;}.cls-5{font-size:75px;font-family:CenturyGothic-Bold, Century Gothic;font-weight:700;}</style></defs><g id="Layer_4" data-name="Layer 4"><path class="cls-1" d="M193.71,333.25v1.39h0C193.71,334.19,193.71,333.72,193.71,333.25Z"/><path class="cls-1" d="M321.57,29.38H60V291c0,144.47,117.11,261.59,261.57,261.59S583.16,435.44,583.16,291,466.06,29.38,321.57,29.38Zm127,364.74a134.7,134.7,0,0,1-254.85-59.48h0V302.77s-3.56-4.59-8.44-11.8c-9.15-13.53-23-36.32-26.77-55.34,0,0-2.62-11.69,5.11-4.93l30.1,20.08V232.61s-30.86-19.3-35.59-23.36c0,0-13.82-12.72-19.52-24.68,0,0-14.82-25.68-17.89-42.68,0,0-3.06-13.38,3.63-6.92a51.84,51.84,0,0,0,5,3.95c15.16,11.06,56.07,36.89,64.4,40.61V163.06L133.56,124.6l-6.6-4.22s-.76-.67-2-1.91c-4.69-4.57-16.36-16.6-22.32-29.13,0,0-12-22.26-14.8-34.55,0,0-6-18.65,6.46-8.23,0,0,9.1,9,37.85,24.79,0,0,12,7.35,25.48,15.79h0c16.26,10.25,34.55,22.11,36.09,24.61a142.22,142.22,0,0,1,34.66,15.39c.73.43,1.44.87,2.19,1.34.9.55,1.8,1.14,2.7,1.73s2,1.34,3.06,2,2,1.39,3,2.1v0l3,2.2a159.93,159.93,0,0,1,50.93,66.63V333.25a35.11,35.11,0,1,0,35.12-35.1h-3.7a23.55,23.55,0,0,1-23.43-23.45V201.31a135.22,135.22,0,0,1,20.3-2.57c2.26-.12,4.54-.17,6.83-.17A134.73,134.73,0,0,1,448.58,394.12Z"/><path class="cls-1" d="M193.73,334.64h0v-1.39C193.71,333.72,193.71,334.19,193.73,334.64Z"/><path class="cls-2" d="M448.58,394.12v0s-88.5,45.11-145.11-22.35c-13.41-16-25.08-28-35.45-37.09-25.2-22.08-42.73-26.77-58.69-28.49-3.93-.41-7.75-.66-11.57-.93-.36,0-.73-.06-1.09-.09l-2.66-.21-.3,0V111.75a159.17,159.17,0,0,1,34.66,15.39c.73.43,1.44.87,2.19,1.34.9.55,1.8,1.14,2.7,1.73s2,1.34,3.06,2,2,1.39,3,2.1v0l3,2.2a159.93,159.93,0,0,1,50.93,66.63V333.25a35.11,35.11,0,1,0,35.12-35.1h-3.7a23.55,23.55,0,0,1-23.43-23.45V201.31a135.22,135.22,0,0,1,20.3-2.57c2.26-.12,4.54-.17,6.83-.17A134.73,134.73,0,0,1,448.58,394.12Z"/><path class="cls-3" d="M193.71,111.75v51.31L133.56,124.6l-6.6-4.22s-.76-.67-2-1.91c-4.69-4.57-16.36-16.6-22.32-29.13,0,0-12-22.26-14.8-34.55,0,0-6-18.65,6.46-8.23,0,0,9.1,9,37.85,24.79,0,0,12,7.35,25.48,15.79h0C173.88,97.39,192.17,109.25,193.71,111.75Z"/><path class="cls-3" d="M193.71,179.53v53.08s-30.86-19.3-35.59-23.36c0,0-13.82-12.72-19.52-24.68,0,0-14.82-25.68-17.89-42.68,0,0-3.06-13.38,3.63-6.92a51.84,51.84,0,0,0,5,3.95C144.47,150,185.38,175.81,193.71,179.53Z"/><path class="cls-3" d="M193.71,250.78v52s-3.56-4.59-8.44-11.8c-9.15-13.53-23-36.32-26.77-55.34,0,0-2.62-11.69,5.11-4.93Z"/><path class="cls-4" d="M448.58,394.08v0a134.7,134.7,0,0,1-254.85-59.48c0-.45,0-.92,0-1.39V304.9l.3,0,2.66.21c.36,0,.73.05,1.09.09,3.82.27,7.64.52,11.57.93,16,1.72,33.49,6.41,58.69,28.49,10.37,9.09,22,21.11,35.45,37.09C360.08,439.19,448.58,394.08,448.58,394.08Z"/><path class="cls-1" d="M193.73,334.64h0v-1.39C193.71,333.72,193.71,334.19,193.73,334.64Z"/></g><g id="Layer_5" data-name="Layer 5"><path class="cls-1" d="M756.29,185.14c-31.61,0-59.73,15.67-77.7,40V100a30.07,30.07,0,0,0-30.06-30.09h-1.77v315.3h31.83V350.83c18,24.34,46.09,40,77.7,40,54.21,0,98.16-46,98.16-102.84S810.5,185.14,756.29,185.14Zm-7.71,178.77c-38.65,0-70-33.47-70-74.78s31.34-74.78,70-74.78,70,33.49,70,74.78S787.21,363.91,748.58,363.91Z"/><path class="cls-1" d="M873.58,64.09h14.53a17.32,17.32,0,0,1,17.32,17.32v298a0,0,0,0,1,0,0H873.58a0,0,0,0,1,0,0V64.09A0,0,0,0,1,873.58,64.09Z"/><path class="cls-3" d="M1901.94,184.79l-78.1,196.61-17,42.94-8.09,20.36s0,0,0,.05l-1.46,3.66-.71,1.81s0,0,0,.07a52.27,52.27,0,0,1-16.3,20A48.67,48.67,0,0,1,1751,480H1317.29l12.1-31.6h424.12a13.83,13.83,0,0,0,12.65-8.07,9.72,9.72,0,0,0,.56-1.38.88.88,0,0,1,0-.15l19.63-49.4h0l3.13-7.9-50.76-126-27.35-67.92-.25-.61,1.65-.66A30.08,30.08,0,0,1,1752,203l54.63,135.61,61.07-153.78Z"/><path class="cls-1" d="M1075,180.48V283.3q0,21-7.22,35.83a51.06,51.06,0,0,1-20.62,22.51q-13.39,7.69-31.47,7.68-24.63,0-38.17-14.63T964,290.8V215.22a34.76,34.76,0,0,0-34.74-34.74V294.93q0,29.26,10.32,48.59a65.83,65.83,0,0,0,28.93,28.69q18.63,9.39,43.24,9.38,23.49,0,42.31-10.87a68.1,68.1,0,0,0,22.79-21.18v29.79h32.93V180.48Z"/><path class="cls-1" d="M1308.65,227.21a89.06,89.06,0,0,0-33.47-35.84q-21.33-12.74-49.19-12.75-27.51,0-49.38,12.95a91.85,91.85,0,0,0-34.36,35.81q-12.48,22.91-12.49,52.53t12.84,52.53a92.74,92.74,0,0,0,36.18,36q23.31,13.13,54.09,13.13,23.87,0,43.21-8.25a84,84,0,0,0,32.38-24l-19.17-23.26a67.61,67.61,0,0,1-24.41,18,77.12,77.12,0,0,1-30.93,6q-20.61,0-36.55-8.63a61.9,61.9,0,0,1-24.77-24.2,67.14,67.14,0,0,1-8.23-25.32h155.65c.22-1.76.41-3.63.54-5.63s.17-3.75.17-5.26Q1320.76,250.29,1308.65,227.21ZM1164.31,266a69.52,69.52,0,0,1,7.42-24.94,58.43,58.43,0,0,1,22.06-23.64Q1207.91,209,1226,209q18.45,0,32.38,8.45a59.31,59.31,0,0,1,21.88,23.45,65.58,65.58,0,0,1,7.28,25.13Z"/><path class="cls-3" d="M1490.43,322.69q0,18-10.13,31.15t-28.57,20.44q-18.45,7.32-44.14,7.31a151.06,151.06,0,0,1-45.4-6.75q-21.53-6.75-33.82-16.51l14.47-28.52q12.3,8.65,30.38,14.65a116.66,116.66,0,0,0,36.89,6q24.26,0,34.91-7.12t10.69-19.89c0-6.26-2.17-11.12-6.52-14.63s-10.07-6.13-17.18-7.88-15-3.32-23.71-4.69-17.35-3.13-26-5.25a100.77,100.77,0,0,1-23.89-9A45.82,45.82,0,0,1,1341,265.86q-6.51-10.32-6.51-27.59,0-18,9.76-31.52T1372,185.94q17.92-7.32,42.5-7.32a162.61,162.61,0,0,1,38.18,4.68q19.33,4.71,31.65,13.32l-14.83,28.52a80.31,80.31,0,0,0-27.14-12.38,120.23,120.23,0,0,0-28.2-3.37q-22.8,0-34,7.67t-11.23,19.7q0,10.14,6.71,15.58c4.45,3.63,10.25,6.45,17.35,8.44a212.63,212.63,0,0,0,23.69,5.08q13,2.06,26.06,5.24a103.11,103.11,0,0,1,23.69,8.81,46.51,46.51,0,0,1,17.37,15.77Q1490.42,305.79,1490.43,322.69Z"/><path class="cls-1" d="M1329.39,448.41,1317.13,480H646.76a31.79,31.79,0,0,1,32-31.6Z"/><path class="cls-3" d="M1699.29,379.39h-46.24l-62.27-64.12-18.35-18.88-16.1-16.57v99.57h-31.86V64.09h1.78a30.08,30.08,0,0,1,30.08,30.08V267.78l18-17,23.83-22.46,39.66-37.4a108.45,108.45,0,0,1,54.64-7.76L1604.67,266l-8.11,7.64,29.84,30.71Z"/><text class="cls-5" transform="translate(60 645.51)">IMMIGRATION &amp; STUDENTS CONSULTANCY SERVICES</text></g></svg>